<?xml version="1.0" standalone="no"?>
<!DOCTYPE svg PUBLIC "-//W3C//DTD SVG 1.1//EN" "http://www.w3.org/Graphics/SVG/1.1/DTD/svg11.dtd">

<svg width="325.2" height="258.0" viewBox="0 0 325.2 258.0" version="1.1" xmlns="http://www.w3.org/2000/svg" xmlns:xlink="http://www.w3.org/1999/xlink">
<!-- automatically generated by aafigure --><line x1="45.0" y1="11.4" x2="246.60000000000002" y2="11.4" stroke="#000000" stroke-width="2.0" />
<line x1="45.0" y1="11.4" x2="45.0" y2="45.0" stroke="#000000" stroke-width="2.0" />
<line x1="246.60000000000002" y1="11.4" x2="246.60000000000002" y2="45.0" stroke="#000000" stroke-width="2.0" />
<line x1="45.0" y1="45.0" x2="246.60000000000002" y2="45.0" stroke="#000000" stroke-width="2.0" />
<g>
    <line x1="78.60000000000001" y1="87.0" x2="74.4" y2="74.4" stroke="#000000" stroke-width="2.0" />
    <line x1="78.60000000000001" y1="87.0" x2="82.8" y2="74.4" stroke="#000000" stroke-width="2.0" />
    <line x1="78.60000000000001" y1="53.400000000000006" x2="78.60000000000001" y2="87.0" stroke="#000000" stroke-width="2.0" />
</g>
<g>
    <line x1="78.60000000000001" y1="137.4" x2="74.4" y2="124.80000000000001" stroke="#000000" stroke-width="2.0" />
    <line x1="78.60000000000001" y1="137.4" x2="82.8" y2="124.80000000000001" stroke="#000000" stroke-width="2.0" />
    <line x1="78.60000000000001" y1="103.80000000000001" x2="78.60000000000001" y2="137.4" stroke="#000000" stroke-width="2.0" />
</g>
<line x1="11.4" y1="145.8" x2="129.0" y2="145.8" stroke="#000000" stroke-width="2.0" />
<line x1="11.4" y1="145.8" x2="11.4" y2="179.4" stroke="#000000" stroke-width="2.0" />
<line x1="129.0" y1="145.8" x2="129.0" y2="179.4" stroke="#000000" stroke-width="2.0" />
<g>
    <line x1="204.60000000000002" y1="162.6" x2="192.0" y2="166.8" stroke="#000000" stroke-width="2.0" />
    <line x1="204.60000000000002" y1="162.6" x2="192.0" y2="158.4" stroke="#000000" stroke-width="2.0" />
    <line x1="154.20000000000002" y1="162.6" x2="204.60000000000002" y2="162.6" stroke="#000000" stroke-width="2.0" />
</g>
<line x1="11.4" y1="179.4" x2="129.0" y2="179.4" stroke="#000000" stroke-width="2.0" />
<g>
    <line x1="246.60000000000002" y1="204.60000000000002" x2="242.4" y2="192.0" stroke="#000000" stroke-width="2.0" />
    <line x1="246.60000000000002" y1="204.60000000000002" x2="250.8" y2="192.0" stroke="#000000" stroke-width="2.0" />
    <line x1="246.60000000000002" y1="171.0" x2="246.60000000000002" y2="204.60000000000002" stroke="#000000" stroke-width="2.0" />
</g>
<line x1="196.20000000000002" y1="213.0" x2="297.0" y2="213.0" stroke="#000000" stroke-width="2.0" />
<line x1="196.20000000000002" y1="213.0" x2="196.20000000000002" y2="246.60000000000002" stroke="#000000" stroke-width="2.0" />
<line x1="297.0" y1="213.0" x2="297.0" y2="246.60000000000002" stroke="#000000" stroke-width="2.0" />
<line x1="196.20000000000002" y1="246.60000000000002" x2="297.0" y2="246.60000000000002" stroke="#000000" stroke-width="2.0" />
<text x="53.400000000000006" y="34.08" font-family="sans-serif" font-size="16.8" fill="#000000" >
  Observation
</text>
<text x="70.2" y="101.28" font-family="sans-serif" font-size="16.8" fill="#000000" >
  actor
</text>
<text x="19.8" y="168.48" font-family="sans-serif" font-size="16.8" fill="#000000" >
  action
</text>
<text x="221.4" y="168.48" font-family="sans-serif" font-size="16.8" fill="#000000" >
  critic
</text>
<text x="204.60000000000002" y="235.68" font-family="sans-serif" font-size="16.8" fill="#000000" >
  value
</text>
</svg>
