<?xml version="1.0" standalone="no"?>
<!DOCTYPE svg PUBLIC "-//W3C//DTD SVG 1.1//EN" "http://www.w3.org/Graphics/SVG/1.1/DTD/svg11.dtd">

<svg width="426.0" height="274.8" viewBox="0 0 426.0 274.8" version="1.1" xmlns="http://www.w3.org/2000/svg" xmlns:xlink="http://www.w3.org/1999/xlink">
<!-- automatically generated by aafigure --><text x="87.0" y="34.08" font-family="sans-serif" font-size="16.8" fill="#000000" >
  Observation
</text>
<text x="87.0" y="118.08" font-family="sans-serif" font-size="16.8" fill="#000000" >
  hidden state
</text>
<text x="36.6" y="252.48000000000002" font-family="sans-serif" font-size="16.8" fill="#000000" >
  action
</text>
<text x="221.4" y="252.48000000000002" font-family="sans-serif" font-size="16.8" fill="#000000" >
  value
</text>
<line x1="78.60000000000001" y1="11.4" x2="313.8" y2="11.4" stroke="#000000" stroke-width="2.0" />
<line x1="78.60000000000001" y1="11.4" x2="78.60000000000001" y2="45.0" stroke="#000000" stroke-width="2.0" />
<line x1="313.8" y1="11.4" x2="313.8" y2="45.0" stroke="#000000" stroke-width="2.0" />
<line x1="78.60000000000001" y1="45.0" x2="313.8" y2="45.0" stroke="#000000" stroke-width="2.0" />
<g>
    <line x1="196.20000000000002" y1="87.0" x2="192.0" y2="74.4" stroke="#000000" stroke-width="2.0" />
    <line x1="196.20000000000002" y1="87.0" x2="200.4" y2="74.4" stroke="#000000" stroke-width="2.0" />
    <line x1="196.20000000000002" y1="53.400000000000006" x2="196.20000000000002" y2="87.0" stroke="#000000" stroke-width="2.0" />
</g>
<line x1="78.60000000000001" y1="95.4" x2="330.6" y2="95.4" stroke="#000000" stroke-width="2.0" />
<line x1="78.60000000000001" y1="95.4" x2="78.60000000000001" y2="129.0" stroke="#000000" stroke-width="2.0" />
<line x1="330.6" y1="95.4" x2="330.6" y2="129.0" stroke="#000000" stroke-width="2.0" />
<line x1="78.60000000000001" y1="129.0" x2="330.6" y2="129.0" stroke="#000000" stroke-width="2.0" />
<g>
    <line x1="78.60000000000001" y1="171.0" x2="74.4" y2="158.4" stroke="#000000" stroke-width="2.0" />
    <line x1="78.60000000000001" y1="171.0" x2="82.8" y2="158.4" stroke="#000000" stroke-width="2.0" />
    <line x1="78.60000000000001" y1="129.0" x2="78.60000000000001" y2="171.0" stroke="#000000" stroke-width="2.0" />
</g>
<line x1="196.20000000000002" y1="137.4" x2="196.20000000000002" y2="271.8" stroke="#000000" stroke-width="2.0" />
<g>
    <line x1="330.6" y1="171.0" x2="326.40000000000003" y2="158.4" stroke="#000000" stroke-width="2.0" />
    <line x1="330.6" y1="171.0" x2="334.8" y2="158.4" stroke="#000000" stroke-width="2.0" />
    <line x1="330.6" y1="129.0" x2="330.6" y2="171.0" stroke="#000000" stroke-width="2.0" />
</g>
<g>
    <line x1="78.60000000000001" y1="221.4" x2="74.4" y2="208.8" stroke="#000000" stroke-width="2.0" />
    <line x1="78.60000000000001" y1="221.4" x2="82.8" y2="208.8" stroke="#000000" stroke-width="2.0" />
    <line x1="78.60000000000001" y1="187.8" x2="78.60000000000001" y2="221.4" stroke="#000000" stroke-width="2.0" />
</g>
<g>
    <line x1="330.6" y1="221.4" x2="326.40000000000003" y2="208.8" stroke="#000000" stroke-width="2.0" />
    <line x1="330.6" y1="221.4" x2="334.8" y2="208.8" stroke="#000000" stroke-width="2.0" />
    <line x1="330.6" y1="187.8" x2="330.6" y2="221.4" stroke="#000000" stroke-width="2.0" />
</g>
<line x1="28.200000000000003" y1="229.8" x2="179.4" y2="229.8" stroke="#000000" stroke-width="2.0" />
<line x1="213.0" y1="229.8" x2="347.40000000000003" y2="229.8" stroke="#000000" stroke-width="2.0" />
<line x1="28.200000000000003" y1="229.8" x2="28.200000000000003" y2="263.40000000000003" stroke="#000000" stroke-width="2.0" />
<line x1="179.4" y1="229.8" x2="179.4" y2="263.40000000000003" stroke="#000000" stroke-width="2.0" />
<line x1="213.0" y1="229.8" x2="213.0" y2="263.40000000000003" stroke="#000000" stroke-width="2.0" />
<line x1="347.40000000000003" y1="229.8" x2="347.40000000000003" y2="263.40000000000003" stroke="#000000" stroke-width="2.0" />
<line x1="28.200000000000003" y1="263.40000000000003" x2="179.4" y2="263.40000000000003" stroke="#000000" stroke-width="2.0" />
<line x1="213.0" y1="263.40000000000003" x2="347.40000000000003" y2="263.40000000000003" stroke="#000000" stroke-width="2.0" />
<text x="70.2" y="185.28" font-family="sans-serif" font-size="16.8" fill="#000000" >
  actor
</text>
<text x="322.2" y="185.28" font-family="sans-serif" font-size="16.8" fill="#000000" >
  critic
</text>
</svg>
